<svg width="24" height="24" viewBox="0 0 24 24" fill="none" xmlns="http://www.w3.org/2000/svg">
<path d="M6.5 19C6.08333 19 5.72917 18.8542 5.4375 18.5625C5.14583 18.2708 5 17.9167 5 17.5C5 17.0833 5.14583 16.7292 5.4375 16.4375C5.72917 16.1458 6.08333 16 6.5 16C6.91667 16 7.27083 16.1458 7.5625 16.4375C7.85417 16.7292 8 17.0833 8 17.5C8 17.9167 7.85417 18.2708 7.5625 18.5625C7.27083 18.8542 6.91667 19 6.5 19ZM17 19C17 17.3333 16.6806 15.7778 16.0417 14.3333C15.4167 12.875 14.5625 11.6042 13.4792 10.5208C12.3958 9.4375 11.125 8.58333 9.66667 7.95833C8.22222 7.31944 6.66667 7 5 7V5C6.94444 5 8.75694 5.36806 10.4375 6.10417C12.1319 6.82639 13.6181 7.82639 14.8958 9.10417C16.1736 10.3819 17.1736 11.8681 17.8958 13.5625C18.6319 15.2431 19 17.0556 19 19H17ZM12 19C12 18.0278 11.8194 17.1181 11.4583 16.2708C11.0972 15.4236 10.5972 14.6806 9.95833 14.0417C9.31944 13.4028 8.57639 12.9028 7.72917 12.5417C6.88194 12.1806 5.97222 12 5 12V10C6.26389 10 7.4375 10.2361 8.52083 10.7083C9.60417 11.1667 10.5556 11.8056 11.375 12.625C12.1944 13.4444 12.8333 14.3958 13.2917 15.4792C13.7639 16.5625 14 17.7361 14 19H12Z" fill="currentColor"/>
</svg>
